<?xml version="1.0" encoding="UTF-8"?>
<svg xmlns="http://www.w3.org/2000/svg" viewBox="0 0 52 51" width="52" height="51">
<path d="M6 0.08C19.33 0.08 32.67 0.08 46 0.08C47.04 0.81 48.07 1.53 49.11 2.25C48.44 3.25 47.78 4.25 47.11 5.25C49.56 14.7 48 27.76 48 37.75C48 40.53 49.19 46.64 45.67 47.89C42.85 48.9 38.72 48.16 35.75 48.16C28.58 48.16 21.42 48.16 14.25 48.16C9.4 48.16 6.2 46.99 2.25 49.72C1.53 48.82 0.81 47.93 0.08 47.04C0.08 33.2 0.08 19.36 0.08 5.52C1.11 4.65 1.44 3.17 2.51 2.26C3.58 1.35 5.05 1.08 6 0.08ZM13.35 19.49C13.04 19.81 12.74 20.13 12.43 20.46C10.3 22.05 11.16 24.2 12.96 25.65C14.13 26.85 15.29 28.05 16.45 29.25C13.69 33.57 8.96 37.43 11.25 43.29C12.67 43.11 14.08 42.93 15.5 42.75C13.97 39.65 17.93 33.95 21.25 32.96C22.18 33.95 23.11 34.95 24.04 35.94C21.54 37.6 18.86 39.96 19.21 43.25C21.14 44.34 28.06 44.7 30.15 43.34C30.33 43.22 30.6 41.92 30.75 41.63C31.56 42.34 32.37 43.04 33.17 43.75C34.92 43.33 35.7 42.23 36.25 40.61C41.45 38.12 43.78 33.74 39.74 28.51C38.08 26.37 33.45 23.73 36.25 21.05C37.58 21.28 38.92 21.51 40.25 21.74C40.88 16.81 32.94 17.16 32.14 21.78C31.25 27.02 43.33 32.09 36.75 36.47C35.87 35.31 36.28 33.86 35.79 32.4C34.36 28.16 31.05 25.88 26.9 24.75C26.07 22.61 26.11 20.47 24.69 18.53C21.83 14.6 15.64 15.78 13.35 19.49ZM22.75 21.9C22.08 21.23 21.42 20.55 20.75 19.88C20.25 20.51 19.75 21.15 19.25 21.78C18.66 21.1 18.07 20.43 17.48 19.75C16.9 20.41 16.33 21.06 15.75 21.72C12.44 15.42 28.8 18.05 22.75 21.9Z" fill="#fdfcc6" fill-rule="evenodd" stroke="#fdfcc6" stroke-width="0.25" stroke-linejoin="round"/>
<path d="M24.04 35.94C25.89 36.5 27.28 36.7 28.75 35.17C28.74 33.13 27.33 31.72 25.75 30.47C23.97 30.83 22.97 31.04 21.33 30.25C21.97 29.17 22.61 28.09 23.25 27.01C21.82 26.57 20.34 27.6 18.76 27.47C15.55 27.22 13.13 22.15 13.35 19.49C15.64 15.78 21.83 14.6 24.69 18.53C26.11 20.47 26.07 22.61 26.9 24.75C31.05 25.88 34.36 28.16 35.79 32.4C36.28 33.86 35.87 35.31 36.75 36.47C43.33 32.09 31.25 27.02 32.14 21.78C32.94 17.16 40.88 16.81 40.25 21.74C38.92 21.51 37.58 21.28 36.25 21.05C33.45 23.73 38.08 26.37 39.74 28.51C43.78 33.74 41.45 38.12 36.25 40.61C35.7 42.23 34.92 43.33 33.17 43.75C32.37 43.04 31.56 42.34 30.75 41.63C30.6 41.92 30.33 43.22 30.15 43.34C28.06 44.7 21.14 44.34 19.21 43.25C18.86 39.96 21.54 37.6 24.04 35.94ZM22.75 21.9C28.8 18.05 12.44 15.42 15.75 21.72C16.33 21.06 16.9 20.41 17.48 19.75C18.07 20.43 18.66 21.1 19.25 21.78C19.75 21.15 20.25 20.51 20.75 19.88C21.42 20.55 22.08 21.23 22.75 21.9ZM12.43 20.46C12.81 22.05 13.19 23.65 13.57 25.25C13.36 25.38 13.16 25.52 12.96 25.65C11.16 24.2 10.3 22.05 12.43 20.46Z" fill="#7e555c" fill-rule="evenodd" stroke="#7e555c" stroke-width="0.25" stroke-linejoin="round"/>
<path d="M0.13 0.13C2.08 0.11 4.04 0.1 6 0.08C5.05 1.08 3.58 1.35 2.51 2.26C1.44 3.17 1.11 4.65 0.08 5.52C0.1 3.72 0.11 1.92 0.13 0.13ZM46 0.08C47.96 0.1 49.92 0.11 51.88 0.13C51.88 17.04 51.88 33.96 51.88 50.88C34.63 50.88 17.38 50.88 0.13 50.88C0.11 49.6 0.1 48.32 0.08 47.04C0.81 47.93 1.53 48.82 2.25 49.72C6.2 46.99 9.4 48.16 14.25 48.16C21.42 48.16 28.58 48.16 35.75 48.16C38.72 48.16 42.85 48.9 45.67 47.89C49.19 46.64 48 40.53 48 37.75C48 27.76 49.56 14.7 47.11 5.25C47.78 4.25 48.44 3.25 49.11 2.25C48.07 1.53 47.04 0.81 46 0.08Z" fill="#a7a379" fill-rule="evenodd" stroke="#a7a379" stroke-width="0.25" stroke-linejoin="round"/>
<path d="M13.35 19.49C13.13 22.15 15.55 27.22 18.76 27.47C20.34 27.6 21.82 26.57 23.25 27.01C22.61 28.09 21.97 29.17 21.33 30.25C22.97 31.04 23.97 30.83 25.75 30.47C27.33 31.72 28.74 33.13 28.75 35.17C27.28 36.7 25.89 36.5 24.04 35.94C23.11 34.95 22.18 33.95 21.25 32.96C17.93 33.95 13.97 39.65 15.5 42.75C14.08 42.93 12.67 43.11 11.25 43.29C8.96 37.43 13.69 33.57 16.45 29.25C15.29 28.05 14.13 26.85 12.96 25.65C13.16 25.52 13.36 25.38 13.57 25.25C13.19 23.65 12.81 22.05 12.43 20.46C12.74 20.13 13.04 19.81 13.35 19.49Z" fill="#663e49" fill-rule="evenodd" stroke="#663e49" stroke-width="0.25" stroke-linejoin="round"/>
</svg>